# xmcd
#
# Track frame offsets:
#	150
#	13260
#	26717
#	38043
#	53756
#	66338
#	83475
#	95728
#	111495
#	124490
#	138367
#	158596
#
# Disc length: 2315 seconds
# Revision: 5
# Processed by: cddbd v1.5.2PL0 Copyright (c) Steve Scherf et al.
# Submitted via: dBpowerAMP V12.0
#
DISCID=a309090c
DTITLE=Aaron Neville - My True Story [dBP-LITE-FLAC@]
DYEAR=2013
DGENRE=Pop
TTITLE0=Money Honey
TTITLE1=My True Story
TTITLE2=Ruby Baby
TTITLE3=Gypsy Woman
TTITLE4=Ting A Ling
TTITLE5=Be My Baby
TTITLE6=Little Bitty Pretty One
TTITLE7=Tears On My Pillow
TTITLE8=Under The Boardwalk
TTITLE9=Work With Me Annie
TTITLE10=Medley - This Magic Moment/ True Love
TTITLE11=Goodnight My Love (Pleasant Dreams)
EXTD=
EXTT0=
EXTT1=
EXTT2=
EXTT3=
EXTT4=
EXTT5=
EXTT6=
EXTT7=
EXTT8=
EXTT9=
EXTT10=
EXTT11=
PLAYORDER=
